<svg class="diagram-root" style="background: #f5f6f6" xmlns="http://www.w3.org/2000/svg" xmlns:xlink="http://www.w3.org/1999/xlink"><style>.diagram-root { font-family: "Helvetica Neue", sans-serif; font-size: 12px; } .t { overflow: visible; } .t-bg { y: 40; fill: #fff;   } .th { fill: #005aa0;   } .tht { fill: #fff; font-size: 14px;  } .tf { fill: #323c46; overflow: visible; } .tf.pk { fill: #005aa0; font-weight: bold; } .tf.fk { font-weight: bold; } .ty { fill: #adb1b5; font-weight: normal; text-anchor: end; } .r { fill: transparent; stroke: #c3c3c3; stroke-width: 1; } .l { stroke: 1; } .i { fill: #c2c7ce; stroke: #c2c7ce; } .i.ix { fill: #afb3b6; stroke: #000; } .fa { fill: transparent; overflow: visible; } .fa .bg.hover { fill: #f7f7f7; } .c { cy: 12; r: 4; stroke: #d2d2dc; fill: #d2d2dc; } .hr { fill: transparent; stroke: #323c46; stroke-opacity: 0.035; stroke-width: 13; } .dc { stroke: #fa5a3c; fill: #fa5a3c; } .x { stroke: white; stroke-width: 1; } .hl .th { fill: #1b9bff; } .hl .tht {  } .fhl .bg { fill: #e7f4ff; } .fhls .bg {  } .r.hl { stroke: #1b9bff; } .dim { opacity: 0.25; }</style><g class="drawing-wrapper" transform="translate(2, 18) scale(1,1)"><g class="rs"><path d="M 204.75 87 m -1, 0 a 1,1 0 1,0 2,0 a 1,1 0 1,0 -2,0 M 204.75 87 m -0.5, 0 a 0.5,0.5 0 1,0 1,0 a 0.5,0.5 0 1,0 -1,0  M204.75 87 L204.75 87 216.75 87 M210.75 93 L210.75 93 210.75 81 M216.75 87 Q 251.82 87, 286.88 88 T 357 89 M 369 89 m -1, 0 a 1,1 0 1,0 2,0 a 1,1 0 1,0 -2,0 M 369 89 m -0.5, 0 a 0.5,0.5 0 1,0 1,0 a 0.5,0.5 0 1,0 -1,0  M369 89 L369 89 357 89 M 369 95 m -1, 0 a 1,1 0 1,0 2,0 a 1,1 0 1,0 -2,0 M 369 95 m -0.5, 0 a 0.5,0.5 0 1,0 1,0 a 0.5,0.5 0 1,0 -1,0  M369 95 L369 95 362 89 369 83 M 369 83 m -1, 0 a 1,1 0 1,0 2,0 a 1,1 0 1,0 -2,0 M 369 83 m -0.5, 0 a 0.5,0.5 0 1,0 1,0 a 0.5,0.5 0 1,0 -1,0 " id="h2597698686" class="r"></path><path d="M 204.75 237 m -1, 0 a 1,1 0 1,0 2,0 a 1,1 0 1,0 -2,0 M 204.75 237 m -0.5, 0 a 0.5,0.5 0 1,0 1,0 a 0.5,0.5 0 1,0 -1,0  M204.75 237 L204.75 237 216.75 237 M210.75 243 L210.75 243 210.75 231 M216.75 237 Q 251.82 237, 286.88 250.5 T 357 264 M 369 264 m -1, 0 a 1,1 0 1,0 2,0 a 1,1 0 1,0 -2,0 M 369 264 m -0.5, 0 a 0.5,0.5 0 1,0 1,0 a 0.5,0.5 0 1,0 -1,0  M369 264 L369 264 357 264 M363 270 L363 270 363 258" id="h1435206948" class="r"></path><path d="M 360 415 m -1, 0 a 1,1 0 1,0 2,0 a 1,1 0 1,0 -2,0 M 360 415 m -0.5, 0 a 0.5,0.5 0 1,0 1,0 a 0.5,0.5 0 1,0 -1,0  M360 415 L360 415 348 415 M354 421 L354 421 354 409 M348 415 Q 315.19 415, 282.38 251 T 216.75 87 M 204.75 87 m -1, 0 a 1,1 0 1,0 2,0 a 1,1 0 1,0 -2,0 M 204.75 87 m -0.5, 0 a 0.5,0.5 0 1,0 1,0 a 0.5,0.5 0 1,0 -1,0  M204.75 87 L204.75 87 216.75 87 M 204.75 93 m -1, 0 a 1,1 0 1,0 2,0 a 1,1 0 1,0 -2,0 M 204.75 93 m -0.5, 0 a 0.5,0.5 0 1,0 1,0 a 0.5,0.5 0 1,0 -1,0  M204.75 93 L204.75 93 211.75 87 204.75 81 M 204.75 81 m -1, 0 a 1,1 0 1,0 2,0 a 1,1 0 1,0 -2,0 M 204.75 81 m -0.5, 0 a 0.5,0.5 0 1,0 1,0 a 0.5,0.5 0 1,0 -1,0 " id="h2498752502" class="r"></path><path d="M 360 515 m -1, 0 a 1,1 0 1,0 2,0 a 1,1 0 1,0 -2,0 M 360 515 m -0.5, 0 a 0.5,0.5 0 1,0 1,0 a 0.5,0.5 0 1,0 -1,0  M360 515 L360 515 348 515 M354 521 L354 521 354 509 M348 515 Q 315.19 515, 282.38 401 T 216.75 287 M 204.75 287 m -1, 0 a 1,1 0 1,0 2,0 a 1,1 0 1,0 -2,0 M 204.75 287 m -0.5, 0 a 0.5,0.5 0 1,0 1,0 a 0.5,0.5 0 1,0 -1,0  M204.75 287 L204.75 287 216.75 287 M210.75 293 L210.75 293 210.75 281" id="h1067565192" class="r"></path></g><g class="hrs"></g><g class="ts"><svg width="167.63" height="175" x="360" y="358" id="h4232133169" class="t"><rect height="40" width="167.63" class="th"></rect><text x="13" y="25" class="tht">Transactional_History</text><rect height="135" width="167.63" class="t-bg" y="40"></rect><text x="13" y="61" class="tf pk">ClientNumb<tspan x="154.63" class="ty">int</tspan></text><path d="M7,14A2,2 0 0,1 5,12A2,2 0 0,1 7,10A2,2 0 0,1 9,12A2,2 0 0,1 7,14M12.65,10C11.83,7.67 9.61,6 7, 6A6, 6 0 0, 0 1, 12A6, 6 0 0, 0 7, 18C9.61, 18 11.83, 16.33 12.65, 14H17V18H21V14H23V10H12.65Z" class="i pk" transform="translate(121.956171875, 48) scale(0.65)"></path><text x="13" y="86" class="tf">Transaction_amount<tspan x="154.63" class="ty">int</tspan></text><text x="13" y="111" class="tf">Transaction_count<tspan x="154.63" class="ty">int</tspan></text><text x="13" y="136" class="tf">months_inactive<tspan x="154.63" class="ty">int</tspan></text><text x="13" y="161" class="tf fk">Attrition_flag<tspan x="154.63" class="ty">varchar</tspan></text></svg><svg width="174.75" height="300" x="30" y="30" id="h2340799981" class="t"><rect height="40" width="174.75" class="th"></rect><text x="13" y="25" class="tht">Client_info</text><rect height="260" width="174.75" class="t-bg" y="40"></rect><text x="13" y="61" class="tf pk">ClientNumb<tspan x="161.75" class="ty">varchar</tspan></text><path d="M7,14A2,2 0 0,1 5,12A2,2 0 0,1 7,10A2,2 0 0,1 9,12A2,2 0 0,1 7,14M12.65,10C11.83,7.67 9.61,6 7, 6A6, 6 0 0, 0 1, 12A6, 6 0 0, 0 7, 18C9.61, 18 11.83, 16.33 12.65, 14H17V18H21V14H23V10H12.65Z" class="i pk" transform="translate(101.736328125, 48) scale(0.65)"></path><text x="13" y="86" class="tf">Age<tspan x="161.75" class="ty">int</tspan></text><text x="13" y="111" class="tf">Gender<tspan x="161.75" class="ty">varchar</tspan></text><text x="13" y="136" class="tf">Dependents<tspan x="161.75" class="ty">int</tspan></text><text x="13" y="161" class="tf">Education_Level<tspan x="161.75" class="ty">varchar</tspan></text><text x="13" y="186" class="tf">Marital_status<tspan x="161.75" class="ty">varchar</tspan></text><text x="13" y="211" class="tf fk">Income<tspan x="161.75" class="ty">int</tspan></text><text x="13" y="236" class="tf">card_category<tspan x="161.75" class="ty">varchar</tspan></text><text x="13" y="261" class="tf fk">Attrition_flag<tspan x="161.75" class="ty">varchar</tspan></text><text x="13" y="286" class="tf">months_on_book<tspan x="161.75" class="ty">int</tspan></text></svg><svg width="168.7" height="275" x="369" y="32" id="h2208644416" class="t hl"><rect height="40" width="168.7" class="th"></rect><text x="13" y="25" class="tht">Financial_info</text><rect height="235" width="168.7" class="t-bg" y="40"></rect><svg width="168" height="25" y="270" class="fhl"><rect width="168" height="25" class="bg"></rect></svg><text x="13" y="61" class="tf pk">ClientNumb<tspan x="155.7" class="ty">varchar</tspan></text><path d="M7,14A2,2 0 0,1 5,12A2,2 0 0,1 7,10A2,2 0 0,1 9,12A2,2 0 0,1 7,14M12.65,10C11.83,7.67 9.61,6 7, 6A6, 6 0 0, 0 1, 12A6, 6 0 0, 0 7, 18C9.61, 18 11.83, 16.33 12.65, 14H17V18H21V14H23V10H12.65Z" class="i pk" transform="translate(95.68632812499999, 48) scale(0.65)"></path><text x="13" y="86" class="tf">Credit_limit<tspan x="155.7" class="ty">int</tspan></text><text x="13" y="111" class="tf">revolving_balance<tspan x="155.7" class="ty">int</tspan></text><text x="13" y="136" class="tf">Availble_balance<tspan x="155.7" class="ty">int</tspan></text><text x="13" y="161" class="tf">Utilization_ratio<tspan x="155.7" class="ty">int</tspan></text><text x="13" y="186" class="tf">Transaction_amount<tspan x="155.7" class="ty">int</tspan></text><text x="13" y="211" class="tf">Transaction_count<tspan x="155.7" class="ty">int</tspan></text><text x="13" y="236" class="tf fk">Income<tspan x="155.7" class="ty">varchar</tspan></text><text x="13" y="261" class="tf">months_inactive<tspan x="155.7" class="ty">int</tspan></text></svg></g></g><text class="qdbd-link" x="10" y="20">www.quickdatabasediagrams.com</text></svg>